<?xml version="1.0" encoding="UTF-8"?>
<svg id="Layer_1" xmlns="http://www.w3.org/2000/svg" version="1.1" viewBox="0 0 64 64">
  <!-- Generator: Adobe Illustrator 30.4.0, SVG Export Plug-In . SVG Version: 2.1.4 Build 226)  -->
  <defs>
    <style>
      .st0 {
        fill: #fff;
      }
    </style>
  </defs>
  <rect y="0" width="64" height="64" rx="18" ry="18"/>
  <path class="st0" d="M49.79,31.22c-.35,3.07,2.07,5.79,5.18,5.65.15.09.28.17.35.25s.03.35-.02.46c-2.67,6.02-7.96,10.91-13.63,14.15-2.2,1.26-4.45,2.29-6.85,3.05-.93.3-1.75.34-2.69.06-2.3-.68-4.46-1.64-6.58-2.79-6.51-3.56-12.45-9.2-14.96-16.29-1.77-5-2.02-10.41-.49-15.49,2.8-9.28,11.99-13.85,21.13-10.33-6.18,4.18-9.33,11.6-8.21,18.93.17,1,.31,1.95.64,2.87-.55-4.21,0-8.39,1.76-12.22,2.88-6.3,8.88-10.56,15.85-10.76,4.82-.14,9.31,2,12.26,5.76.14.26.25.8-.1.9-2.44.71-4.03,3.08-3.63,5.63-2.91-.09-5.21,2.21-5.25,5-.05,2.83,2.22,5.22,5.22,5.18Z"/>
</svg>
